PathFileType	4	(X/Y/Z)	Kaydara	
DataRate	CameraRate	NumFrames	NumMarkers	Units	OrigDataRate	OrigDataStartFrame	OrigNumFrames	
120.00	120.00	4	72	mm	120.00	168	268	
Frame#	Time	Hips			RightUpLeg			RightLeg			RightFoot			RightFoot_End			LeftUpLeg			LeftLeg			LeftFoot			LeftFoot_End			Spine			Spine1			Spine2			Spine3			Neck			Head			Head_End			RightShoulder			RightArm			RightForeArm			RightHand			RightHandThumb1			RightHandThumb2			RightHandThumb3			RightHandThumb3_End			RightInHandIndex			RightHandIndex1			RightHandIndex2			RightHandIndex3			RightHandIndex3_End			RightInHandMiddle			RightHandMiddle1			RightHandMiddle2			RightHandMiddle3			RightHandMiddle3_End			RightInHandRing			RightHandRing1			RightHandRing2			RightHandRing3			RightHandRing3_End			RightInHandPinky			RightHandPinky1			RightHandPinky2			RightHandPinky3			RightHandPinky3_End			LeftShoulder			LeftArm			LeftForeArm			LeftHand			LeftHandThumb1			LeftHandThumb2			LeftHandThumb3			LeftHandThumb3_End			LeftInHandIndex			LeftHandIndex1			LeftHandIndex2			LeftHandIndex3			LeftHandIndex3_End			LeftInHandMiddle			LeftHandMiddle1			LeftHandMiddle2			LeftHandMiddle3			LeftHandMiddle3_End			LeftInHandRing			LeftHandRing1			LeftHandRing2			LeftHandRing3			LeftHandRing3_End			LeftInHandPinky			LeftHandPinky1			LeftHandPinky2			LeftHandPinky3			LeftHandPinky3_End			
		X1	Y1	Z1	X2	Y2	Z2	X3	Y3	Z3	X4	Y4	Z4	X5	Y5	Z5	X6	Y6	Z6	X7	Y7	Z7	X8	Y8	Z8	X9	Y9	Z9	X10	Y10	Z10	X11	Y11	Z11	X12	Y12	Z12	X13	Y13	Z13	X14	Y14	Z14	X15	Y15	Z15	X16	Y16	Z16	X17	Y17	Z17	X18	Y18	Z18	X19	Y19	Z19	X20	Y20	Z20	X21	Y21	Z21	X22	Y22	Z22	X23	Y23	Z23	X24	Y24	Z24	X25	Y25	Z25	X26	Y26	Z26	X27	Y27	Z27	X28	Y28	Z28	X29	Y29	Z29	X30	Y30	Z30	X31	Y31	Z31	X32	Y32	Z32	X33	Y33	Z33	X34	Y34	Z34	X35	Y35	Z35	X36	Y36	Z36	X37	Y37	Z37	X38	Y38	Z38	X39	Y39	Z39	X40	Y40	Z40	X41	Y41	Z41	X42	Y42	Z42	X43	Y43	Z43	X44	Y44	Z44	X45	Y45	Z45	X46	Y46	Z46	X47	Y47	Z47	X48	Y48	Z48	X49	Y49	Z49	X50	Y50	Z50	X51	Y51	Z51	X52	Y52	Z52	X53	Y53	Z53	X54	Y54	Z54	X55	Y55	Z55	X56	Y56	Z56	X57	Y57	Z57	X58	Y58	Z58	X59	Y59	Z59	X60	Y60	Z60	X61	Y61	Z61	X62	Y62	Z62	X63	Y63	Z63	X64	Y64	Z64	X65	Y65	Z65	X66	Y66	Z66	X67	Y67	Z67	X68	Y68	Z68	X69	Y69	Z69	X70	Y70	Z70	X71	Y71	Z71	X72	Y72	Z72	

168	1.392	6446.805	859.65103	-201.189	6518.564575416512	849.8260233972312	-236.7019078981117	6398.3073013206	453.5021589808107	-273.3114709730321	6470.230686632382	54.47771357814701	-349.0496699844587	6415.648234236748	-29.879658890048386	-194.45644434147783	6383.020478836464	841.2220323809534	-151.7573045898055	6256.037890872387	451.12544881127815	-70.23195506365654	6197.983036548727	70.63133255461118	92.05782008799856	6251.773001440416	22.292166532742122	267.78625116306966	6407.5374724038475	983.6532547956602	-259.9180478935471	6357.928692123493	1053.4753495954717	-305.0921895485507	6300.573235678259	1121.630824660816	-352.2119600338113	6237.322832295616	1178.4813314669261	-397.92232529134094	6168.909996047397	1239.3374210673364	-443.3579424135198	6122.848794069356	1310.560850593544	-402.32901257586514	6098.464013077372	1395.0566444307194	-270.4497781488847	6207.819834309246	1225.9811876633767	-446.00767283678	6277.5232502164845	1234.1012764731906	-515.412111643413	6366.364865731309	1029.2697539542285	-527.1663901365549	6455.9205931728375	992.7716914302762	-644.5567506902096	6464.672326592498	1011.1038025830037	-653.0904651117435	6462.694934413834	1021.8756338017272	-673.7168456123878	6462.115531660866	1026.759291692243	-688.2682281718096	6462.314881968222	1028.5910871600993	-700.5592076120414	6469.8809596822175	1003.5711470559421	-653.5278724112338	6487.477663273744	1009.6312002867069	-672.3355485770186	6491.463624813685	1012.9420936992975	-690.8535615873826	6487.392773683844	1016.1652287811863	-703.7347101654916	6479.605883113986	1019.6186798584909	-715.3195337318069	6471.0453944991805	996.1970240169625	-653.6404145088768	6488.840890681341	998.1194135991994	-672.0441806281399	6493.276617604136	1000.7384657228255	-692.211640334078	6488.406657240079	1004.1501755706485	-707.7333793370588	6479.906494872204	1007.6970434145048	-720.4000944716456	6471.511613414143	990.8258605308174	-653.1898148503204	6488.135517514139	987.8665285641692	-669.1453336908326	6492.060802207501	989.130597386624	-686.6546743071675	6487.39470202059	991.8804701103417	-701.5901483682146	6479.417261067248	994.9590589107721	-713.4827653113344	6470.809819158262	984.5125500661507	-652.5207968538383	6485.940857211039	977.8855956444904	-666.5803923603654	6489.1030823315405	977.3214709046839	-680.424843313773	6485.708801675499	978.5647088421476	-691.2335215585256	6478.647376460831	980.8529944470438	-701.7193426385804	6175.070267054353	1215.0305572245297	-408.72128334297247	6124.074602000989	1155.9018685209207	-344.45060493852765	6207.801244614905	1037.1700071071882	-504.0554348538763	6381.569985028038	1002.406670796923	-495.4228148896481	6380.97536634227	1022.3272345699477	-503.7628905502007	6392.00705134422	1026.71795341771	-527.5602934267615	6399.360258886735	1027.3748717629098	-545.8223206784252	6405.208640870645	1025.8687147070423	-562.4919166474637	6378.419530864876	1016.642425118145	-509.75919411766336	6378.105069795918	1024.757235897634	-541.510938768404	6384.942325181446	1024.5625568083296	-568.0156111570798	6393.358758027641	1022.5609250254404	-583.0733551385546	6403.1349369107065	1019.6356523358346	-594.5786761194632	6377.870333106706	1009.5525859551842	-513.4587990556145	6377.264544333751	1013.6342973359675	-546.4283583493855	6384.662719075016	1012.4527588275563	-575.7408978649045	6394.786790958581	1009.5728119954156	-594.0949756727008	6405.469101233612	1006.1459503043386	-606.7750122157358	6377.416489898065	1004.381772772323	-515.2349139006395	6376.263508002523	1003.6835200154551	-546.2438463180229	6382.649539702339	1001.6562279297193	-572.1404136475302	6392.381965433022	998.3485798226501	-590.0289969249322	6402.410372463827	994.8754450840671	-602.0389083568074	6377.484379552934	997.8306717316261	-516.5779641405392	6376.220778597082	993.3059212806384	-545.7654651601193	6381.242941745011	990.1291004458346	-566.9098203363991	6388.29753657011	986.9650381555856	-580.1548755641682	6397.155590993113	983.4559382068295	-590.9071078889607
169	1.4	6446.805	859.65103	-201.189	6518.430110109963	849.5376586951149	-237.2679788985507	6398.179758643792	453.1348659101371	-273.734991242937	6471.302645966713	54.37715138933196	-349.9713877628685	6416.961499716806	-29.985860255449627	-195.1712300995772	6383.139662756049	841.499070324164	-151.20379462947938	6256.3937587658775	451.37146822994777	-69.4370506118919	6198.552653968891	70.29926929506038	91.75634365570302	6252.631839934278	21.88243952029084	267.40385558472565	6407.611640493564	983.7202675068202	-259.8284345278035	6358.0339173498205	1053.5812524798964	-305.0058348338361	6300.71672202689	1121.7903699118779	-352.14086688828297	6237.494016948973	1178.691697443466	-397.8937055362028	6169.096065294002	1239.5874869571442	-443.384493639524	6122.65234976353	1310.6609077792639	-402.47235481851317	6098.2109423467755	1395.0779892763476	-270.5184275072494	6207.982599426968	1226.043245573042	-446.2410486687151	6277.555941196008	1233.33457497688	-516.5366187672788	6364.294391361676	1027.0579621297152	-528.4296084607746	6452.784693413774	987.451764444548	-647.1574484791242	6461.926481684311	1005.4011441774808	-656.0035455735789	6460.000740821651	1015.8726088926558	-676.9361634765874	6459.3886082454865	1020.534116526573	-691.6869120455978	6459.501902227179	1022.1696153095437	-704.1322051094916	6466.941772453329	997.7667649779469	-656.4211395308823	6484.510052519704	1003.1253458176668	-675.6185734506442	6488.384673337198	1006.0554326071887	-694.4006316443574	6484.252511645592	1009.1657455299447	-707.4230686401505	6476.420209712926	1012.6094051033302	-719.1094112403837	6467.915992121584	990.3868699288721	-656.4819745474847	6485.580903425893	991.6219118055212	-675.2379323403641	6489.870014915489	993.8270759797623	-695.6854220058673	6484.914030852676	997.1034611310104	-711.3737351846105	6476.358320032943	1000.6399999853679	-724.1496418440413	6468.249024266091	985.0282145621867	-655.9849575301229	6484.641672122338	981.4598941234531	-672.2159914195186	6488.413690887383	982.36599866941	-689.9605766538399	6483.651085268526	984.9868177216141	-705.0520352772462	6475.615003696482	988.0563950510958	-717.0450974023287	6467.390806945004	978.7599973446199	-655.2506790121038	6482.214888482716	971.597645070006	-669.5230686379916	6485.215644553124	970.7538815877887	-683.5409162623109	6481.732232845731	971.906376112884	-694.4561246763362	6474.608076853001	974.1886293643281	-705.026753903449	6175.301176265562	1215.460776482179	-408.5098038664554	6124.313526226285	1156.7764825454085	-343.11809818654933	6206.251092736997	1036.1524939676008	-503.20956335200356	6380.3478154303475	998.2226780388027	-496.44269552858265	6379.389429792353	1017.9442452481647	-505.28339277152503	6390.207103043227	1022.0643533472448	-529.395387669869	6397.419120263914	1022.4953010265644	-547.8184633728628	6403.156511495664	1020.7686669744778	-564.5726722241935	6376.80917118298	1012.0969182691344	-511.1249654707844	6376.013619259978	1019.562389574918	-543.1581510677055	6382.618531644035	1018.9680234157064	-569.8192989411549	6390.977689547921	1016.8275007033731	-584.978142643991	6400.765262691773	1013.8611929145673	-596.5697199317302	6376.302931893281	1004.9301194784296	-514.6550610646111	6375.251108634859	1008.3368423350923	-547.8074529173758	6382.403107619805	1006.7111824567181	-577.2674098184203	6392.46160994111	1003.6598382827833	-595.7322661378669	6403.15810406049	1000.1862146255661	-608.5012405924076	6375.89063081824	999.7206000987428	-516.304312109798	6374.3708010681885	998.3811769816457	-547.3671959081198	6380.550499285057	995.9597011031226	-573.3681197113791	6390.224051020494	992.4829639056404	-591.3507416187733	6400.267866858881	988.9640781997803	-603.438203860921	6376.028882564831	993.1508245448388	-517.4923887250835	6374.468393850955	988.0232392322112	-546.6341804524509	6379.339786989015	984.5225186573718	-567.8242143164763	6386.35843089199	981.231130274725	-581.1195349252048	6395.2341590167	977.6792050994892	-591.9299173606407
170	1.408	6446.805	859.65103	-201.189	6518.25610696134	849.2379738130082	-237.83708178456877	6398.056852707939	452.74779185175765	-274.14932709042176	6472.393773089324	54.29598379549158	-350.95660906502616	6418.341788230012	-30.091130388708915	-195.97093988876645	6383.297368382711	841.787066485857	-150.64767889182704	6256.791268713744	451.62694692253456	-68.64289492456815	6199.141178074959	69.98053413224267	91.44247023746175	6253.513288649824	21.474938650944583	267.0013957047559	6407.692648753189	983.7895784071917	-259.7367293167832	6358.149579318154	1053.6938059558117	-304.9134630338587	6300.874540538404	1121.961792820298	-352.05915354643446	6237.683870100606	1178.9212058422497	-397.8488629613676	6169.304858065509	1239.8638154116259	-443.38790927173676	6122.482605571894	1310.7892075057646	-402.59478636740283	6097.985969337175	1395.1376555067434	-270.5740899274106	6208.154221513387	1226.12142192418	-446.4467264603782	6277.546194007755	1232.560794303979	-517.593449935786	6362.163839237243	1024.912443855486	-529.5380453304524	6449.523729801401	982.2391381892338	-649.5095191691528	6459.044544945968	999.8107755719848	-658.6577936201168	6457.170971708627	1009.9875944072269	-679.8791695056336	6456.527029085397	1014.4307268337492	-694.8169832120307	6456.555512767221	1015.8728974088015	-707.4062255154852	6463.866306102683	992.0743231291107	-659.0546915062494	6481.3962273029665	996.7380025348089	-678.6222390050553	6485.158916243688	999.2921697082946	-697.6519308070679	6480.968861702927	1002.2925314243657	-710.8055772772399	6473.096530504782	1005.7286629318527	-722.5851803020074	6464.652480662012	984.6878744145504	-659.0640241790154	6482.178288425965	985.2415548064535	-678.1531248350778	6486.320465870139	987.0380396705948	-698.8628234804459	6481.282738122413	990.1825042895013	-714.7055928636887	6472.677444003197	993.7111618246167	-727.5816749968462	6464.854050182876	979.3410039978786	-658.5212588261007	6481.009121150378	975.1684226689308	-675.0113845337667	6484.627944071401	975.7209666056362	-692.9758005594492	6479.773146137685	978.2159432460319	-708.2116181966343	6471.684120228691	981.2787762562451	-720.2966780954563	6463.842177297963	973.1168817569711	-657.7228781166494	6478.354998230215	965.4228435323613	-672.1937838032778	6481.1949119873	964.3027345209778	-686.3729423890666	6477.625791258952	965.3667151920838	-697.3863256189893	6470.444109323389	967.6448795278809	-708.0343515448611	6175.566271178554	1215.9219126244716	-408.286107696498	6124.63182460597	1157.7240294488827	-341.79836108736833	6204.749328516167	1035.2224952585116	-502.2535580764652	6379.046610427387	994.1358538195651	-497.32107413221246	6377.729613126767	1013.6562832276024	-506.6472531825232	6388.330872572426	1017.5012626474597	-531.0560649411998	6395.400577241411	1017.7033627157775	-549.6281930432857	6401.026513150353	1015.7540836974225	-566.4573414656651	6375.128444656162	1007.6475090490858	-512.334208327688	6373.862471984655	1014.4616983424456	-544.6267216717255	6380.236768994681	1013.464684076675	-571.4282569195524	6388.535322092181	1011.1824775862068	-586.6792186826889	6398.328562786766	1008.1721809210219	-598.3503063863577	6374.666019064099	1000.4044743203262	-515.6965715278818	6373.179032835744	1003.1347058632946	-549.0111887426298	6380.086812368136	1001.0617933159341	-578.6013130182379	6390.075761885433	997.8357302115097	-597.1662583231993	6400.780190369333	994.3121358962069	-610.0168606914713	6374.29565562831	995.1568273193964	-517.2207836849216	6372.419250415599	993.1754411109837	-548.3207500803838	6378.394375126529	990.3571563459079	-574.4113396695366	6388.005239835222	986.7081814307462	-592.4778722523516	6398.058602191017	983.1405539907335	-604.6360987633778	6374.503915357086	988.5689608173761	-518.2565896386297	6372.6559591311125	982.838232137553	-547.3388768108132	6377.378031893865	979.0116755709678	-568.5634365662984	6384.357963131332	975.5907446891445	-581.9019307241103	6393.2461831437495	971.9933911188783	-592.7646215842681
171	1.417	6446.805	859.65103	-201.189	6518.0420110467185	848.9271974780441	-238.4085354810798	6397.939036911372	452.34106676982714	-274.5540724071569	6473.502436687311	54.23462645707917	-352.0056769244562	6419.788442556093	-30.195471825968724	-196.85664030235478	6383.494111257198	842.0857867741773	-150.08962946975254	6257.230345763251	451.8917769268299	-67.8504561122256	6199.748005107659	69.67584319967477	91.1167445090327	6254.416419831805	21.070327446927116	266.57948750986355	6407.780703970621	983.8611976180966	-259.64301256452313	6358.275896221661	1053.8130640047602	-304.8150651017936	6301.046916315315	1122.1452128311334	-351.9666861689405	6237.892584092815	1179.170017226705	-397.7874849905365	6169.536549738817	1240.1666432323898	-443.36764254625695	6122.340351275937	1310.946270865485	-402.6955261420779	6097.790273867126	1395.2364078276644	-270.6161285333903	6208.334631117995	1226.216054619476	-446.6238601871801	6277.4929951980575	1231.780967902589	-518.5800909306175	6359.97433936932	1022.8370537583495	-530.4871728857511	6446.1376758055085	977.1412019520869	-651.6036136420943	6456.025487310972	994.3404468099282	-661.0431858106101	6454.204326939821	1004.2285282383382	-682.5349551788926	6453.5294112956835	1008.457216145619	-697.6469085992052	6453.474352417681	1009.7091779722731	-710.3692080980092	6460.653764423532	986.5017268583339	-661.4184200463601	6478.134847545267	990.4778126069926	-681.3352188712093	6481.784929936643	992.6612824154312	-700.5952511465744	6477.540466079583	995.5545974693982	-713.869562659044	6469.633621614517	998.9853742257853	-725.7338379143187	6461.254385226899	979.1079762475669	-661.3764736454796	6478.632214026648	978.9870181777511	-680.7784903116913	6482.627092207192	980.3803999874362	-701.7316213540084	6477.512001566813	983.3963896286185	-717.7161704247994	6468.863246200907	986.9195153227663	-730.6830528379382	6461.3264547474655	973.7721745348979	-660.7886732055805	6477.23750841491	969.0007324066164	-677.5204502716649	6480.703211056569	969.2044404710069	-695.6884587053246	6475.760655616902	971.5768262302582	-711.0564754807436	6467.624540780855	974.6350899118362	-723.2247501622361	6460.164003400304	967.5911190012384	-659.9274345152126	6474.361332392126	959.3697123790255	-674.5816979210189	6477.041107425883	957.9768062240229	-688.9094389477316	6473.389823523259	958.9545310406405	-700.0122603476805	6466.155981615371	961.2304677221108	-710.729979113825	6175.865950702193	1216.4140114602103	-408.0501259156003	6125.030971557649	1158.7446434134554	-340.4931003091026	6203.299154633407	1034.3822980380235	-501.1861281516576	6377.666362129493	990.1519499252697	-498.0535149049047	6375.996390263207	1009.4692112716858	-507.8488237984649	6386.379033781025	1013.0348474214843	-532.5357654326943	6393.305469553128	1013.0054867664201	-551.2444115955668	6398.819646659705	1010.8316597443977	-568.1384602631771	6373.3780122208545	1003.3002601104088	-513.381491955737	6371.653205177236	1009.4618898172843	-545.9101368268531	6377.798999566187	1008.0597227653785	-572.8353148951344	6386.0336260134	1005.6332254203819	-588.1690635794668	6395.826658091893	1002.5760737985107	-599.9126660947454	6372.960284151819	995.9818327128907	-516.5782050595873	6371.049915711815	998.0347834215086	-550.0335492277738	6377.715852829873	995.5119984958633	-579.735918480824	6387.631276209697	992.1081255319644	-598.3898626908391	6398.337226158328	988.5314509984548	-611.3145199903548	6372.632253603025	990.6967047212395	-517.979446034141	6370.410368503138	988.0732625814402	-549.0990366326586	6376.183045430102	984.8560025237837	-575.2640615714249	6385.727419122913	981.0318705422478	-593.4040150999085	6395.78431180561	977.412607027004	-605.6259837196582	6372.910117354935	984.0913857469608	-518.8659999938641	6370.7848482455975	977.7578830125924	-547.8746389271859	6375.359338019788	973.6039383910712	-569.1222143851182	6382.297798965853	970.05142400961	-582.4965625717626	6391.193191295063	966.4061289950056	-593.405532279784
